<?xml version="1.0" standalone="no"?>
<!DOCTYPE svg PUBLIC "-//W3C//DTD SVG 20010904//EN"
 "http://www.w3.org/TR/2001/REC-SVG-20010904/DTD/svg10.dtd">
<svg version="1.0" xmlns="http://www.w3.org/2000/svg"
 width="512.000000pt" height="512.000000pt" viewBox="0 0 512.000000 512.000000"
 preserveAspectRatio="xMidYMid meet">
<metadata>
Created by potrace 1.16, written by Peter Selinger 2001-2019
</metadata>
<g transform="translate(0.000000,512.000000) scale(0.100000,-0.100000)"
fill="#000000" stroke="none">
<path d="M2376 3774 c-168 -30 -367 -114 -505 -212 -276 -196 -468 -499 -526
-828 -49 -279 33 -610 212 -863 70 -98 208 -237 303 -305 146 -106 346 -189
524 -221 351 -61 734 68 1017 342 202 196 327 429 374 699 50 285 -34 614
-221 875 -67 92 -213 237 -305 302 -256 181 -592 262 -873 211z m314 -54 c480
-41 868 -362 997 -826 27 -95 28 -108 28 -334 0 -226 -1 -239 -28 -334 -108
-388 -408 -688 -788 -791 -197 -53 -481 -53 -678 0 -380 103 -680 403 -788
791 -27 95 -28 108 -28 334 0 226 1 239 28 334 127 456 522 788 982 826 132
11 149 11 275 0z"/>
<path d="M2785 2610 l-370 -370 -55 0 -55 0 -172 172 c-138 137 -175 170 -185
160 -10 -10 31 -56 200 -225 l212 -212 410 410 c226 225 409 414 407 419 -2 6
-7 11 -13 13 -5 2 -176 -163 -379 -367z"/>
</g>
</svg>
